{"title":"Resident.Evil.Afterlife.2010.480p.BRRip.H264.Feel-Free","uid":5978373,"size":1418748402,"categoryP":"video","categoryS":"movies","magnet":"?xt=urn:btih:8bddd9eb98146eb70665b6f7e223a4da647242f9&amp;dn=Resident.Evil.Afterlife.2010.480p.BRRip.H264.Feel-Free&amp;tr=udp%3A%2F%2Ftracker.openbittorrent.com%3A80&amp;tr=udp%3A%2F%2Fopen.demonii.com%3A1337&amp;tr=udp%3A%2F%2Ftracker.coppersurfer.tk%3A6969&amp;tr=udp%3A%2F%2Fexodus.desync.com%3A6969","seeders":0,"leechers":1,"uploader":"neon","files":12,"time":1290470528,"description":"Language: English\nIMDB:http://www.imdb.com/title/tt1220634/\nSource:720p.Bluray.x264.DTS-HDChina\n\nGeneral\nComplete name :Resident.Evil.Afterlife.2010.480p.BRRip.H264.Feel-Free\nFormat : MPEG-4\nFormat profile : Base Media\nCodec ID : mp42\nFile size : 1.32 GiB\nDuration : 1h 36mn\nOverall bit rate : 1 949 Kbps\nVideo #1\nCodec ID : avc1\nCodec ID/Info : Advanced Video Coding\nDuration : 1h 36mn\nBit rate mode : Variable\nBit rate : 1 467 Kbps\nWidth : 720 pixels\nHeight : 304 pixels\nDisplay aspect ratio : 2.35:1\nFrame rate mode : Constant\nFrame rate : 23.976 fps\nResolution : 24 bits\nColorimetry : 4:2:0\nScan type : Progressive\nBits/(Pixel*Frame) : 0.280\nStream size : 1 017 MiB (75%)\nAudio #2\nID : 2\nFormat : AAC\nFormat/Info : Advanced Audio Codec\nFormat version : Version 4\nFormat profile : LC\nFormat settings, SBR : No\nCodec ID : 40\nDuration : 1h 36mn\nBit rate mode : Constant\nBit rate : 477 Kbps\nNominal bit rate : 480 Kbps\nChannel(s) : 6 channels\nChannel positions : Front: L C R, Rear: L R, LFE\nSampling rate : 48.0 KHz\nResolution : 16 bits\nStream size : 331 MiB (24%)\nPlot\nIn a world ravaged by a virus infection, turning its victims into the Undead, Alice (Jovovich)\n\n","torrent":{"xt":"urn:btih:8bddd9eb98146eb70665b6f7e223a4da647242f9","amp;dn":"Resident.Evil.Afterlife.2010.480p.BRRip.H264.Feel-Free","amp;tr":["udp%3A%2F%2Ftracker.openbittorrent.com%3A80","udp%3A%2F%2Fopen.demonii.com%3A1337","udp%3A%2F%2Ftracker.coppersurfer.tk%3A6969","udp%3A%2F%2Fexodus.desync.com%3A6969"],"infoHash":"8bddd9eb98146eb70665b6f7e223a4da647242f9","infoHashBuffer":{"type":"Buffer","data":[139,221,217,235,152,20,110,183,6,101,182,247,226,35,164,218,100,114,66,249]},"announce":[],"urlList":[]}}